# xmcd CD database file
#
# Track frame offsets:
#	150
#	3226
#	22906
#	42249
#	46380
#	61597
#	78885
#	95171
#	100920
#	119258
#	131958
#	137808
#	151366
#	167113
#	184103
#	189966
#	204034
#	213002
#
# Disc length: 2877 seconds
#
# Revision: 0
# Processed by: cddbd v1.5.1PL2 Copyright (c) Steve Scherf et al.
# Submitted via: CDex 1.50
#
DISCID=e30b3b12
DTITLE=Glenn Miller Orchestra - Merry Christmas
DYEAR=1998
DGENRE=Jazz
TTITLE0=Deck The Halls
TTITLE1=Sleigh Ride
TTITLE2=The Christmas Song
TTITLE3=Caroling, Caroling
TTITLE4=Rudolph, The Red-Nosed Reindeer
TTITLE5=A Christmas Love Song
TTITLE6=Jingle Bells
TTITLE7=O Cone All Je Faithfull
TTITLE8=Have Yourself A Merry Little Christmas
TTITLE9=Santa Claus Is Coming To Town
TTITLE10=It Came Upon The Midnight Clear
TTITLE11=White Christmas
TTITLE12=Let It Snow
TTITLE13=Christmas Dreaming
TTITLE14=Silent Night
TTITLE15=Winter Wonderland
TTITLE16=Joy To The World
TTITLE17=We Wish You A Merry Christmas
EXTD=YEAR: 1998
EXTT0=
EXTT1=
EXTT2=
EXTT3=
EXTT4=
EXTT5=
EXTT6=
EXTT7=
EXTT8=
EXTT9=
EXTT10=
EXTT11=
EXTT12=
EXTT13=
EXTT14=
EXTT15=
EXTT16=
EXTT17=
PLAYORDER=
